<svg width="1440" height="2706" viewBox="0 0 1440 2706" fill="none" xmlns="http://www.w3.org/2000/svg">
<path fill-rule="evenodd" clip-rule="evenodd" d="M758.561 411.594C435.126 498.366 75.3194 482.45 -204.876 628.598C-515.514 790.625 -795.149 1003.26 -888.017 1270.44C-983.694 1545.69 -883.793 1834.09 -711.605 2086.42C-541.06 2336.34 -292.245 2575.85 69.7568 2673.97C414.068 2767.29 780.674 2630.55 1146.79 2590.13C1507.76 2550.27 1927.59 2620.11 2195.5 2439.26C2463.81 2258.13 2382.57 1948.74 2475.27 1693.33C2577.82 1410.77 2835.93 1150.92 2766.89 864.879C2686.6 532.254 2517.13 118.766 2070.9 18.0497C1611.66 -85.6008 1213.55 289.529 758.561 411.594Z" fill="url(#paint0_linear_617_124)"/>
<defs>
<linearGradient id="paint0_linear_617_124" x1="698.305" y1="1115.07" x2="525.074" y2="1944.52" gradientUnits="userSpaceOnUse">
<stop stop-color="#170429" stop-opacity="0"/>
<stop offset="0.12515" stop-color="#170429"/>
</linearGradient>
</defs>
</svg>
