<svg width="19" height="20" viewBox="0 0 19 20" fill="none" xmlns="http://www.w3.org/2000/svg">
<path fill-rule="evenodd" clip-rule="evenodd" d="M9.34688 18.3314C13.8248 18.3314 17.4549 14.7013 17.4549 10.2233C17.4549 5.74539 13.8248 2.1153 9.34688 2.1153C4.86893 2.1153 1.23884 5.74539 1.23884 10.2233C1.23884 14.7013 4.86893 18.3314 9.34688 18.3314ZM9.34688 19.4765C14.4572 19.4765 18.6 15.3337 18.6 10.2233C18.6 5.11298 14.4572 0.970215 9.34688 0.970215C4.23652 0.970215 0.09375 5.11298 0.09375 10.2233C0.09375 15.3337 4.23652 19.4765 9.34688 19.4765Z" fill="#DADADA"/>
<path d="M6.76636 13.8666L8.76355 13.9681V8.33198L6.93561 8.58586C6.92433 8.42789 6.91869 8.19093 6.91869 7.875C6.91869 7.55906 6.92433 7.3221 6.93561 7.16413C7.47722 7.119 8.08089 7.09643 8.74662 7.09643C9.05128 7.09643 9.54211 7.10771 10.2191 7.13028V13.985L11.9286 13.8666L11.9117 15.2206H6.78328L6.76636 13.8666ZM9.22053 5.4039C8.88202 5.4039 8.61686 5.31927 8.42504 5.15002C8.2445 4.98077 8.15423 4.76074 8.15423 4.48993C8.15423 4.20784 8.2445 3.98217 8.42504 3.81292C8.61686 3.64367 8.88202 3.55904 9.22053 3.55904C9.53647 3.55904 9.78471 3.64367 9.96524 3.81292C10.1571 3.98217 10.253 4.20784 10.253 4.48993C10.253 4.76074 10.1571 4.98077 9.96524 5.15002C9.78471 5.31927 9.53647 5.4039 9.22053 5.4039Z" fill="#DADADA"/>
</svg>
