<svg width="3222" height="474" viewBox="0 0 3222 474" fill="none" xmlns="http://www.w3.org/2000/svg">
<g filter="url(#filter0_d_1045_81)">
<path fill-rule="evenodd" clip-rule="evenodd" d="M2858.48 132.461C2858.5 132.141 2858.51 131.818 2858.51 131.492C2858.51 131.028 2858.49 130.57 2858.45 130.118H3072.5C3073.15 130.118 3073.67 130.642 3073.67 131.289C3073.67 131.937 3073.15 132.461 3072.5 132.461H2858.48ZM2830.03 132.461H2616.48C2616.5 132.141 2616.51 131.818 2616.51 131.492C2616.51 131.028 2616.49 130.57 2616.45 130.118H2830.07C2830.02 130.57 2830 131.028 2830 131.492C2830 131.818 2830.01 132.141 2830.03 132.461ZM2374.48 132.461H2588.03C2588.01 132.141 2588 131.818 2588 131.492C2588 131.028 2588.02 130.57 2588.07 130.118H2374.45C2374.49 130.57 2374.51 131.028 2374.51 131.492C2374.51 131.818 2374.5 132.141 2374.48 132.461ZM2346.03 132.461H214C213.353 132.461 212.828 131.937 212.828 131.289C212.828 130.642 213.353 130.118 214 130.118H2346.07C2346.02 130.57 2346 131.028 2346 131.492C2346 131.818 2346.01 132.141 2346.03 132.461Z" fill="url(#paint0_linear_1045_81)"/>
<path d="M215 131.29H2162" stroke="#FFC700" stroke-width="4"/>
<path d="M207.641 132.184C207.641 140.468 200.925 147.184 192.641 147.184C184.356 147.184 177.641 140.468 177.641 132.184C177.641 123.899 184.356 117.184 192.641 117.184C200.925 117.184 207.641 123.899 207.641 132.184Z" fill="#FFC700"/>
<path d="M451 132.184C451 140.468 444.284 147.184 436 147.184C427.716 147.184 421 140.468 421 132.184C421 123.899 427.716 117.184 436 117.184C444.284 117.184 451 123.899 451 132.184Z" fill="#FFC700"/>
<path d="M694.359 132.184C694.359 140.468 687.644 147.184 679.359 147.184C671.075 147.184 664.359 140.468 664.359 132.184C664.359 123.899 671.075 117.184 679.359 117.184C687.644 117.184 694.359 123.899 694.359 132.184Z" fill="#FFC700"/>
<path d="M937.719 132.184C937.719 140.468 931.003 147.184 922.719 147.184C914.434 147.184 907.719 140.468 907.719 132.184C907.719 123.899 914.434 117.184 922.719 117.184C931.003 117.184 937.719 123.899 937.719 132.184Z" fill="#FFC700"/>
<path d="M1181.08 132.184C1181.08 140.468 1174.36 147.184 1166.08 147.184C1157.79 147.184 1151.08 140.468 1151.08 132.184C1151.08 123.899 1157.79 117.184 1166.08 117.184C1174.36 117.184 1181.08 123.899 1181.08 132.184Z" fill="#FFC700"/>
<path d="M1424.44 132.184C1424.44 140.468 1417.72 147.184 1409.44 147.184C1401.15 147.184 1394.44 140.468 1394.44 132.184C1394.44 123.899 1401.15 117.184 1409.44 117.184C1417.72 117.184 1424.44 123.899 1424.44 132.184Z" fill="#FFC700"/>
<path d="M1667.8 132.184C1667.8 140.468 1661.08 147.184 1652.8 147.184C1644.51 147.184 1637.8 140.468 1637.8 132.184C1637.8 123.899 1644.51 117.184 1652.8 117.184C1661.08 117.184 1667.8 123.899 1667.8 132.184Z" fill="#FFC700"/>
<path d="M1911.16 132.184C1911.16 140.468 1904.44 147.184 1896.16 147.184C1887.87 147.184 1881.16 140.468 1881.16 132.184C1881.16 123.899 1887.87 117.184 1896.16 117.184C1904.44 117.184 1911.16 123.899 1911.16 132.184Z" fill="#FFC700"/>
<path d="M2154.52 132.184C2154.52 140.468 2147.8 147.184 2139.52 147.184C2131.23 147.184 2124.52 140.468 2124.52 132.184C2124.52 123.899 2131.23 117.184 2139.52 117.184C2147.8 117.184 2154.52 123.899 2154.52 132.184Z" fill="#FFC700"/>
<path d="M192.641 153.867C204.616 153.867 214.324 144.159 214.324 132.184C214.324 120.208 204.616 110.5 192.641 110.5C180.665 110.5 170.957 120.208 170.957 132.184C170.957 144.159 180.665 153.867 192.641 153.867Z" stroke="#FFC700" stroke-width="3"/>
<path d="M189.115 136.481L185.259 132.626C184.833 132.199 184.14 132.199 183.714 132.626V132.626C183.288 133.051 183.288 133.74 183.714 134.166L188.237 138.69C188.722 139.174 189.508 139.174 189.992 138.69L201.568 127.113C201.994 126.687 201.994 125.998 201.568 125.573V125.573C201.142 125.146 200.449 125.146 200.023 125.573L189.115 136.481Z" fill="black"/>
<path d="M432.474 136.481L428.619 132.626C428.192 132.199 427.5 132.199 427.073 132.626V132.626C426.648 133.051 426.648 133.74 427.073 134.166L431.597 138.69C432.081 139.174 432.867 139.174 433.351 138.69L444.928 127.113C445.353 126.687 445.353 125.998 444.928 125.573V125.573C444.501 125.146 443.809 125.146 443.382 125.573L432.474 136.481Z" fill="black"/>
<path d="M675.833 136.481L671.978 132.626C671.551 132.199 670.859 132.199 670.432 132.626V132.626C670.007 133.051 670.007 133.74 670.432 134.166L674.956 138.69C675.44 139.174 676.227 139.174 676.711 138.69L688.287 127.113C688.713 126.687 688.713 125.998 688.287 125.573V125.573C687.861 125.146 687.168 125.146 686.741 125.573L675.833 136.481Z" fill="black"/>
<path d="M919.193 136.481L915.337 132.626C914.911 132.199 914.218 132.199 913.792 132.626V132.626C913.366 133.051 913.366 133.74 913.792 134.166L918.315 138.69C918.8 139.174 919.586 139.174 920.07 138.69L931.646 127.113C932.072 126.687 932.072 125.998 931.646 125.573V125.573C931.22 125.146 930.527 125.146 930.101 125.573L919.193 136.481Z" fill="black"/>
<path d="M1162.55 136.481L1158.7 132.626C1158.27 132.199 1157.58 132.199 1157.15 132.626V132.626C1156.73 133.051 1156.73 133.74 1157.15 134.166L1161.67 138.69C1162.16 139.174 1162.95 139.174 1163.43 138.69L1175.01 127.113C1175.43 126.687 1175.43 125.998 1175.01 125.573V125.573C1174.58 125.146 1173.89 125.146 1173.46 125.573L1162.55 136.481Z" fill="black"/>
<path d="M1405.91 136.481L1402.06 132.626C1401.63 132.199 1400.94 132.199 1400.51 132.626V132.626C1400.09 133.051 1400.09 133.74 1400.51 134.166L1405.03 138.69C1405.52 139.174 1406.3 139.174 1406.79 138.69L1418.37 127.113C1418.79 126.687 1418.79 125.998 1418.37 125.573V125.573C1417.94 125.146 1417.25 125.146 1416.82 125.573L1405.91 136.481Z" fill="black"/>
<path d="M1649.27 136.481L1645.42 132.626C1644.99 132.199 1644.3 132.199 1643.87 132.626V132.626C1643.44 133.051 1643.44 133.74 1643.87 134.166L1648.39 138.69C1648.88 139.174 1649.66 139.174 1650.15 138.69L1661.72 127.113C1662.15 126.687 1662.15 125.998 1661.72 125.573V125.573C1661.3 125.146 1660.61 125.146 1660.18 125.573L1649.27 136.481Z" fill="black"/>
<path d="M1892.63 136.481L1888.77 132.626C1888.35 132.199 1887.66 132.199 1887.23 132.626V132.626C1886.8 133.051 1886.8 133.74 1887.23 134.166L1891.75 138.69C1892.24 139.174 1893.02 139.174 1893.51 138.69L1905.08 127.113C1905.51 126.687 1905.51 125.998 1905.08 125.573V125.573C1904.66 125.146 1903.96 125.146 1903.54 125.573L1892.63 136.481Z" fill="black"/>
<path d="M3095.18 153.867C3107.16 153.867 3116.87 144.159 3116.87 132.184C3116.87 120.208 3107.16 110.5 3095.18 110.5C3083.21 110.5 3073.5 120.208 3073.5 132.184C3073.5 144.159 3083.21 153.867 3095.18 153.867Z" stroke="#A846EC" stroke-width="3"/>
<path fill-rule="evenodd" clip-rule="evenodd" d="M3095.18 147.184C3103.47 147.184 3110.18 140.468 3110.18 132.184C3110.18 123.9 3103.47 117.184 3095.18 117.184C3086.9 117.184 3080.18 123.9 3080.18 132.184C3080.18 140.468 3086.9 147.184 3095.18 147.184ZM3086.98 132.184C3086.98 132.715 3087.16 133.16 3087.52 133.52C3087.88 133.879 3088.33 134.059 3088.86 134.059C3089.39 134.059 3089.83 133.879 3090.19 133.52C3090.55 133.16 3090.73 132.715 3090.73 132.184C3090.73 131.653 3090.55 131.208 3090.19 130.848C3089.83 130.489 3089.39 130.31 3088.86 130.31C3088.33 130.31 3087.88 130.489 3087.52 130.848C3087.16 131.208 3086.98 131.653 3086.98 132.184ZM3093.31 132.184C3093.31 132.715 3093.49 133.16 3093.85 133.52C3094.21 133.879 3094.65 134.059 3095.18 134.059C3095.71 134.059 3096.16 133.879 3096.52 133.52C3096.88 133.16 3097.06 132.715 3097.06 132.184C3097.06 131.653 3096.88 131.208 3096.52 130.848C3096.16 130.489 3095.71 130.31 3095.18 130.31C3094.65 130.31 3094.21 130.489 3093.85 130.848C3093.49 131.208 3093.31 131.653 3093.31 132.184ZM3099.64 132.184C3099.64 132.715 3099.82 133.16 3100.17 133.52C3100.53 133.879 3100.98 134.059 3101.51 134.059C3102.04 134.059 3102.49 133.879 3102.85 133.52C3103.2 133.16 3103.38 132.715 3103.38 132.184C3103.38 131.653 3103.2 131.208 3102.85 130.848C3102.49 130.489 3102.04 130.31 3101.51 130.31C3100.98 130.31 3100.53 130.489 3100.17 130.848C3099.82 131.208 3099.64 131.653 3099.64 132.184Z" fill="#A846EC"/>
<path d="M2373.05 131.492C2373.05 138.522 2367.33 144.23 2360.26 144.23C2353.19 144.23 2347.46 138.522 2347.46 131.492C2347.46 124.462 2353.19 118.754 2360.26 118.754C2367.33 118.754 2373.05 124.462 2373.05 131.492Z" stroke="#743DFE" stroke-width="2.92929"/>
<path d="M2615.05 131.492C2615.05 138.522 2609.33 144.23 2602.26 144.23C2595.19 144.23 2589.46 138.522 2589.46 131.492C2589.46 124.462 2595.19 118.754 2602.26 118.754C2609.33 118.754 2615.05 124.462 2615.05 131.492Z" stroke="#8440F9" stroke-width="2.92929"/>
<path d="M2857.05 131.492C2857.05 138.522 2851.33 144.23 2844.26 144.23C2837.19 144.23 2831.46 138.522 2831.46 131.492C2831.46 124.462 2837.19 118.754 2844.26 118.754C2851.33 118.754 2857.05 124.462 2857.05 131.492Z" stroke="#9643F3" stroke-width="2.92929"/>
</g>
<path d="M2162 131.3H2608" stroke="#FFC700" stroke-width="4"/>
<path d="M2134.72 136.229L2130.86 132.373C2130.44 131.946 2129.75 131.946 2129.32 132.373C2128.89 132.798 2128.89 133.487 2129.32 133.913L2133.84 138.437C2134.33 138.921 2135.11 138.921 2135.6 138.437L2147.17 126.86C2147.6 126.434 2147.6 125.745 2147.17 125.32C2146.75 124.893 2146.05 124.893 2145.63 125.32L2134.72 136.229Z" fill="black"/>
<path d="M2602.18 153.867C2614.16 153.867 2623.87 144.159 2623.87 132.184C2623.87 120.208 2614.16 110.5 2602.18 110.5C2590.21 110.5 2580.5 120.208 2580.5 132.184C2580.5 144.159 2590.21 153.867 2602.18 153.867Z" stroke="#FFC700" stroke-width="3"/>
<path d="M2617 132C2617 140.284 2610.28 147 2602 147C2593.72 147 2587 140.284 2587 132C2587 123.716 2593.72 117 2602 117C2610.28 117 2617 123.716 2617 132Z" fill="#FFC700"/>
<path d="M2375 131C2375 139.284 2368.28 146 2360 146C2351.72 146 2345 139.284 2345 131C2345 122.716 2351.72 116 2360 116C2368.28 116 2375 122.716 2375 131Z" fill="#FFC700"/>
<path d="M2356.72 136.229L2352.86 132.373C2352.44 131.946 2351.75 131.946 2351.32 132.373V132.373C2350.89 132.798 2350.89 133.487 2351.32 133.913L2355.84 138.437C2356.33 138.921 2357.11 138.921 2357.6 138.437L2369.17 126.86C2369.6 126.434 2369.6 125.745 2369.17 125.32V125.32C2368.75 124.893 2368.05 124.893 2367.63 125.32L2356.72 136.229Z" fill="black"/>
<defs>
<filter id="filter0_d_1045_81" x="0" y="0" width="3226" height="481.29" filterUnits="userSpaceOnUse" color-interpolation-filters="sRGB">
<feFlood flood-opacity="0" result="BackgroundImageFix"/>
<feColorMatrix in="SourceAlpha" type="matrix" values="0 0 0 0 0 0 0 0 0 0 0 0 0 0 0 0 0 0 127 0" result="hardAlpha"/>
<feOffset dy="4"/>
<feGaussianBlur stdDeviation="2"/>
<feComposite in2="hardAlpha" operator="out"/>
<feColorMatrix type="matrix" values="0 0 0 0 0 0 0 0 0 0 0 0 0 0 0 0 0 0 0.25 0"/>
<feBlend mode="normal" in2="BackgroundImageFix" result="effect1_dropShadow_1045_81"/>
<feBlend mode="normal" in="SourceGraphic" in2="effect1_dropShadow_1045_81" result="shape"/>
</filter>
<linearGradient id="paint0_linear_1045_81" x1="190.252" y1="129.715" x2="4007.59" y2="-776.722" gradientUnits="userSpaceOnUse">
<stop stop-color="#FF54CF"/>
<stop offset="0.526042" stop-color="#6F3CFF"/>
<stop offset="1" stop-color="#FF54CF"/>
</linearGradient>
</defs>
</svg>
