<svg width="3057" height="365" viewBox="0 0 3057 365" fill="none" xmlns="http://www.w3.org/2000/svg">
<g filter="url(#filter0_d_1015_81)">
<path fill-rule="evenodd" clip-rule="evenodd" d="M2693.48 23.4611C2693.5 23.1409 2693.51 22.8177 2693.51 22.492C2693.51 22.0284 2693.49 21.5699 2693.45 21.1177H2907.5C2908.15 21.1177 2908.67 21.6423 2908.67 22.2894C2908.67 22.9365 2908.15 23.4611 2907.5 23.4611H2693.48ZM2665.03 23.4611H2451.48C2451.5 23.1409 2451.51 22.8177 2451.51 22.492C2451.51 22.0284 2451.49 21.5699 2451.45 21.1177H2665.07C2665.02 21.5699 2665 22.0284 2665 22.492C2665 22.8177 2665.01 23.1409 2665.03 23.4611ZM2209.48 23.4611H2423.03C2423.01 23.1409 2423 22.8177 2423 22.492C2423 22.0284 2423.02 21.5699 2423.07 21.1177H2209.45C2209.49 21.5699 2209.51 22.0283 2209.51 22.4919C2209.51 22.8176 2209.5 23.1408 2209.48 23.4611ZM2181.03 23.4611H48.9998C48.3527 23.4611 47.8281 22.9365 47.8281 22.2894C47.8281 21.6423 48.3527 21.1177 48.9998 21.1177H2181.07C2181.02 21.5699 2181 22.0283 2181 22.4919C2181 22.8176 2181.01 23.1408 2181.03 23.4611Z" fill="url(#paint0_linear_1015_81)"/>
<path d="M50 22.2896H1997" stroke="#FFC700" stroke-width="4"/>
<path d="M42.6406 23.1836C42.6406 31.4679 35.9249 38.1836 27.6406 38.1836C19.3564 38.1836 12.6406 31.4679 12.6406 23.1836C12.6406 14.8993 19.3564 8.18359 27.6406 8.18359C35.9249 8.18359 42.6406 14.8993 42.6406 23.1836Z" fill="#FFC700"/>
<path d="M286 23.1836C286 31.4679 279.284 38.1836 271 38.1836C262.716 38.1836 256 31.4679 256 23.1836C256 14.8993 262.716 8.18359 271 8.18359C279.284 8.18359 286 14.8993 286 23.1836Z" fill="#FFC700"/>
<path d="M529.359 23.1836C529.359 31.4679 522.644 38.1836 514.359 38.1836C506.075 38.1836 499.359 31.4679 499.359 23.1836C499.359 14.8993 506.075 8.18359 514.359 8.18359C522.644 8.18359 529.359 14.8993 529.359 23.1836Z" fill="#FFC700"/>
<path d="M772.719 23.1836C772.719 31.4679 766.003 38.1836 757.719 38.1836C749.434 38.1836 742.719 31.4679 742.719 23.1836C742.719 14.8993 749.434 8.18359 757.719 8.18359C766.003 8.18359 772.719 14.8993 772.719 23.1836Z" fill="#FFC700"/>
<path d="M1016.08 23.1836C1016.08 31.4679 1009.36 38.1836 1001.08 38.1836C992.794 38.1836 986.078 31.4679 986.078 23.1836C986.078 14.8993 992.794 8.18359 1001.08 8.18359C1009.36 8.18359 1016.08 14.8993 1016.08 23.1836Z" fill="#FFC700"/>
<path d="M1259.44 23.1836C1259.44 31.4679 1252.72 38.1836 1244.44 38.1836C1236.15 38.1836 1229.44 31.4679 1229.44 23.1836C1229.44 14.8993 1236.15 8.18359 1244.44 8.18359C1252.72 8.18359 1259.44 14.8993 1259.44 23.1836Z" fill="#FFC700"/>
<path d="M1502.8 23.1836C1502.8 31.4679 1496.08 38.1836 1487.8 38.1836C1479.51 38.1836 1472.8 31.4679 1472.8 23.1836C1472.8 14.8993 1479.51 8.18359 1487.8 8.18359C1496.08 8.18359 1502.8 14.8993 1502.8 23.1836Z" fill="#FFC700"/>
<path d="M1746.16 23.1836C1746.16 31.4679 1739.44 38.1836 1731.16 38.1836C1722.87 38.1836 1716.16 31.4679 1716.16 23.1836C1716.16 14.8993 1722.87 8.18359 1731.16 8.18359C1739.44 8.18359 1746.16 14.8993 1746.16 23.1836Z" fill="#FFC700"/>
<path d="M1989.52 23.1836C1989.52 31.4679 1982.8 38.1836 1974.52 38.1836C1966.23 38.1836 1959.52 31.4679 1959.52 23.1836C1959.52 14.8993 1966.23 8.18359 1974.52 8.18359C1982.8 8.18359 1989.52 14.8993 1989.52 23.1836Z" fill="#FFC700"/>
<path d="M27.6407 44.8673C39.6162 44.8673 49.3243 35.1592 49.3243 23.1837C49.3243 11.2081 39.6162 1.5 27.6407 1.5C15.6651 1.5 5.95703 11.2081 5.95703 23.1837C5.95703 35.1592 15.6651 44.8673 27.6407 44.8673Z" stroke="#FFC700" stroke-width="3"/>
<path d="M1974.18 44.8673C1986.16 44.8673 1995.87 35.1592 1995.87 23.1837C1995.87 11.2081 1986.16 1.5 1974.18 1.5C1962.21 1.5 1952.5 11.2081 1952.5 23.1837C1952.5 35.1592 1962.21 44.8673 1974.18 44.8673Z" stroke="#FFC700" stroke-width="3"/>
<path d="M24.1147 27.4814L20.2592 23.6258C19.8326 23.1992 19.1402 23.1992 18.7136 23.6258V23.6258C18.2882 24.0513 18.2882 24.7403 18.7136 25.1658L23.2373 29.6896C23.7216 30.174 24.5078 30.174 24.9921 29.6896L36.5683 18.1129C36.9938 17.6874 36.9938 16.9984 36.5683 16.5729V16.5729C36.1418 16.1463 35.4493 16.1463 35.0227 16.5729L24.1147 27.4814Z" fill="black"/>
<path d="M267.474 27.4814L263.619 23.6258C263.192 23.1992 262.5 23.1992 262.073 23.6258V23.6258C261.648 24.0513 261.648 24.7403 262.073 25.1658L266.597 29.6896C267.081 30.174 267.867 30.174 268.351 29.6896L279.928 18.1129C280.353 17.6874 280.353 16.9984 279.928 16.5729V16.5729C279.501 16.1463 278.809 16.1463 278.382 16.5729L267.474 27.4814Z" fill="black"/>
<path d="M510.833 27.4814L506.978 23.6258C506.551 23.1992 505.859 23.1992 505.432 23.6258V23.6258C505.007 24.0513 505.007 24.7403 505.432 25.1658L509.956 29.6896C510.44 30.174 511.227 30.174 511.711 29.6896L523.287 18.1129C523.713 17.6874 523.713 16.9984 523.287 16.5729V16.5729C522.861 16.1463 522.168 16.1463 521.741 16.5729L510.833 27.4814Z" fill="black"/>
<path d="M754.193 27.4814L750.337 23.6258C749.911 23.1992 749.218 23.1992 748.792 23.6258V23.6258C748.366 24.0513 748.366 24.7403 748.792 25.1658L753.315 29.6896C753.8 30.174 754.586 30.174 755.07 29.6896L766.646 18.1129C767.072 17.6874 767.072 16.9984 766.646 16.5729V16.5729C766.22 16.1463 765.527 16.1463 765.101 16.5729L754.193 27.4814Z" fill="black"/>
<path d="M997.552 27.4814L993.697 23.6258C993.27 23.1992 992.578 23.1992 992.151 23.6258V23.6258C991.726 24.0513 991.726 24.7403 992.151 25.1658L996.675 29.6896C997.159 30.174 997.945 30.174 998.43 29.6896L1010.01 18.1129C1010.43 17.6874 1010.43 16.9984 1010.01 16.5729V16.5729C1009.58 16.1463 1008.89 16.1463 1008.46 16.5729L997.552 27.4814Z" fill="black"/>
<path d="M1240.91 27.4814L1237.06 23.6258C1236.63 23.1992 1235.94 23.1992 1235.51 23.6258V23.6258C1235.09 24.0513 1235.09 24.7403 1235.51 25.1658L1240.03 29.6896C1240.52 30.174 1241.3 30.174 1241.79 29.6896L1253.37 18.1129C1253.79 17.6874 1253.79 16.9984 1253.37 16.5729V16.5729C1252.94 16.1463 1252.25 16.1463 1251.82 16.5729L1240.91 27.4814Z" fill="black"/>
<path d="M1484.27 27.4814L1480.42 23.6258C1479.99 23.1992 1479.3 23.1992 1478.87 23.6258V23.6258C1478.44 24.0513 1478.44 24.7403 1478.87 25.1658L1483.39 29.6896C1483.88 30.174 1484.66 30.174 1485.15 29.6896L1496.72 18.1129C1497.15 17.6874 1497.15 16.9984 1496.72 16.5729V16.5729C1496.3 16.1463 1495.61 16.1463 1495.18 16.5729L1484.27 27.4814Z" fill="black"/>
<path d="M1727.63 27.4814L1723.77 23.6258C1723.35 23.1992 1722.66 23.1992 1722.23 23.6258V23.6258C1721.8 24.0513 1721.8 24.7403 1722.23 25.1658L1726.75 29.6896C1727.24 30.174 1728.02 30.174 1728.51 29.6896L1740.08 18.1129C1740.51 17.6874 1740.51 16.9984 1740.08 16.5729V16.5729C1739.66 16.1463 1738.96 16.1463 1738.54 16.5729L1727.63 27.4814Z" fill="black"/>
<path d="M2930.18 44.8673C2942.16 44.8673 2951.87 35.1592 2951.87 23.1837C2951.87 11.2081 2942.16 1.5 2930.18 1.5C2918.21 1.5 2908.5 11.2081 2908.5 23.1837C2908.5 35.1592 2918.21 44.8673 2930.18 44.8673Z" stroke="#A846EC" stroke-width="3"/>
<path fill-rule="evenodd" clip-rule="evenodd" d="M2930.18 38.1841C2938.47 38.1841 2945.18 31.4684 2945.18 23.1841C2945.18 14.8998 2938.47 8.18408 2930.18 8.18408C2921.9 8.18408 2915.18 14.8998 2915.18 23.1841C2915.18 31.4684 2921.9 38.1841 2930.18 38.1841ZM2921.98 23.184C2921.98 23.7151 2922.16 24.1603 2922.52 24.5196C2922.88 24.8789 2923.33 25.0585 2923.86 25.0585C2924.39 25.0585 2924.83 24.8789 2925.19 24.5196C2925.55 24.1603 2925.73 23.7151 2925.73 23.184C2925.73 22.6529 2925.55 22.2078 2925.19 21.8485C2924.83 21.4892 2924.39 21.3096 2923.86 21.3096C2923.33 21.3096 2922.88 21.4892 2922.52 21.8485C2922.16 22.2078 2921.98 22.6529 2921.98 23.184ZM2928.31 23.184C2928.31 23.7151 2928.49 24.1603 2928.85 24.5196C2929.21 24.8789 2929.65 25.0585 2930.18 25.0585C2930.71 25.0585 2931.16 24.8789 2931.52 24.5196C2931.88 24.1603 2932.06 23.7151 2932.06 23.184C2932.06 22.6529 2931.88 22.2078 2931.52 21.8485C2931.16 21.4892 2930.71 21.3096 2930.18 21.3096C2929.65 21.3096 2929.21 21.4892 2928.85 21.8485C2928.49 22.2078 2928.31 22.6529 2928.31 23.184ZM2934.64 23.184C2934.64 23.7151 2934.82 24.1603 2935.17 24.5196C2935.53 24.8789 2935.98 25.0585 2936.51 25.0585C2937.04 25.0585 2937.49 24.8789 2937.85 24.5196C2938.2 24.1603 2938.38 23.7151 2938.38 23.184C2938.38 22.6529 2938.2 22.2078 2937.85 21.8485C2937.49 21.4892 2937.04 21.3096 2936.51 21.3096C2935.98 21.3096 2935.53 21.4892 2935.17 21.8485C2934.82 22.2078 2934.64 22.6529 2934.64 23.184Z" fill="#A846EC"/>
<path d="M2208.05 22.492C2208.05 29.5217 2202.33 35.2299 2195.26 35.2299C2188.19 35.2299 2182.46 29.5217 2182.46 22.492C2182.46 15.4624 2188.19 9.7542 2195.26 9.7542C2202.33 9.7542 2208.05 15.4624 2208.05 22.492Z" stroke="#743DFE" stroke-width="2.92929"/>
<path d="M2450.05 22.492C2450.05 29.5217 2444.33 35.2299 2437.26 35.2299C2430.19 35.2299 2424.46 29.5217 2424.46 22.492C2424.46 15.4624 2430.19 9.7542 2437.26 9.7542C2444.33 9.7542 2450.05 15.4624 2450.05 22.492Z" stroke="#8440F9" stroke-width="2.92929"/>
<path d="M2692.05 22.492C2692.05 29.5217 2686.33 35.2299 2679.26 35.2299C2672.19 35.2299 2666.46 29.5217 2666.46 22.492C2666.46 15.4624 2672.19 9.7542 2679.26 9.7542C2686.33 9.7542 2692.05 15.4624 2692.05 22.492Z" stroke="#9643F3" stroke-width="2.92929"/>
</g>
<defs>
<filter id="filter0_d_1015_81" x="0.457031" y="0" width="3060.54" height="372.29" filterUnits="userSpaceOnUse" color-interpolation-filters="sRGB">
<feFlood flood-opacity="0" result="BackgroundImageFix"/>
<feColorMatrix in="SourceAlpha" type="matrix" values="0 0 0 0 0 0 0 0 0 0 0 0 0 0 0 0 0 0 127 0" result="hardAlpha"/>
<feOffset dy="4"/>
<feGaussianBlur stdDeviation="2"/>
<feComposite in2="hardAlpha" operator="out"/>
<feColorMatrix type="matrix" values="0 0 0 0 0 0 0 0 0 0 0 0 0 0 0 0 0 0 0.25 0"/>
<feBlend mode="normal" in2="BackgroundImageFix" result="effect1_dropShadow_1015_81"/>
<feBlend mode="normal" in="SourceGraphic" in2="effect1_dropShadow_1015_81" result="shape"/>
</filter>
<linearGradient id="paint0_linear_1015_81" x1="25.2521" y1="20.7149" x2="3842.59" y2="-885.722" gradientUnits="userSpaceOnUse">
<stop stop-color="#FF54CF"/>
<stop offset="0.526042" stop-color="#6F3CFF"/>
<stop offset="1" stop-color="#FF54CF"/>
</linearGradient>
</defs>
</svg>
