<svg width="1214" height="1367" viewBox="0 0 1214 1367" fill="none" xmlns="http://www.w3.org/2000/svg">
<path d="M229.052 1019.43C229.052 1031.44 219.313 1041.17 207.297 1041.17C195.282 1041.17 185.543 1031.44 185.543 1019.43C185.543 1007.42 195.282 997.687 207.297 997.687C219.313 997.687 229.052 1007.42 229.052 1019.43Z" stroke="#D54EDE" stroke-width="5"/>
<path fill-rule="evenodd" clip-rule="evenodd" d="M40.3413 76.311C41.4459 76.311 42.3413 77.2065 42.3413 78.311V205.574C42.3413 217.724 52.191 227.574 64.3413 227.574L1180.28 227.573C1194.64 227.573 1206.28 239.214 1206.28 253.573V463.341C1206.28 477.701 1194.64 489.341 1180.28 489.341H61.6758C49.5256 489.341 39.6758 499.191 39.6758 511.341V732.426C39.6758 744.576 49.5255 754.426 61.6758 754.426H932.848C932.801 755.04 932.777 755.66 932.777 756.286C932.777 757.007 932.809 757.721 932.871 758.426H61.6758C47.3164 758.426 35.6758 746.785 35.6758 732.426V511.341C35.6758 496.982 47.3164 485.341 61.6758 485.341H1180.28C1192.43 485.341 1202.28 475.491 1202.28 463.341V253.573C1202.28 241.423 1192.43 231.573 1180.28 231.573L64.3413 231.574C49.9819 231.574 38.3413 219.933 38.3413 205.574V78.311C38.3413 77.2065 39.2367 76.311 40.3413 76.311ZM981.386 756.286C981.386 755.66 981.362 755.04 981.316 754.426H1180.28C1194.64 754.426 1206.28 766.067 1206.28 780.426V995.224C1206.28 1009.58 1194.64 1021.22 1180.28 1021.22H981.31C981.361 1020.58 981.388 1019.93 981.388 1019.27C981.388 1018.58 981.359 1017.9 981.302 1017.22H1180.28C1192.43 1017.22 1202.28 1007.37 1202.28 995.224V780.426C1202.28 768.276 1192.43 758.426 1180.28 758.426H981.293C981.354 757.721 981.386 757.007 981.386 756.286ZM932.905 1020.4C932.917 1020.68 932.935 1020.95 932.956 1021.22H580.589C580.641 1020.58 580.667 1019.93 580.667 1019.27C580.667 1018.58 580.638 1017.9 580.582 1017.22H932.964C932.908 1017.9 932.879 1018.58 932.879 1019.27C932.879 1019.65 932.888 1020.03 932.905 1020.4ZM183.212 1017.22H64.3413C49.9819 1017.22 38.3413 1028.86 38.3413 1043.22V1288.54C38.3413 1289.65 39.2367 1290.54 40.3413 1290.54C41.4459 1290.54 42.3413 1289.65 42.3413 1288.54V1043.22C42.3413 1031.07 52.1911 1021.22 64.3413 1021.22H183.205C183.153 1020.58 183.127 1019.93 183.127 1019.27C183.127 1018.58 183.156 1017.9 183.212 1017.22ZM231.55 1017.22H532.243C532.187 1017.9 532.158 1018.58 532.158 1019.27C532.158 1019.93 532.184 1020.58 532.236 1021.22H231.558C231.609 1020.58 231.636 1019.93 231.636 1019.27C231.636 1018.58 231.607 1017.9 231.55 1017.22Z" fill="url(#paint0_linear_1045_99)"/>
<path d="M978.955 756.285C978.955 768.284 969.189 778.027 957.121 778.027C945.054 778.027 935.287 768.284 935.287 756.285C935.287 744.286 945.054 734.543 957.121 734.543C969.189 734.543 978.955 744.286 978.955 756.285Z" stroke="#6F3CFF" stroke-width="5"/>
<path d="M978.955 1018.9C978.955 1030.9 969.189 1040.64 957.121 1040.64C945.054 1040.64 935.287 1030.9 935.287 1018.9C935.287 1006.9 945.054 997.158 957.121 997.158C969.189 997.158 978.955 1006.9 978.955 1018.9Z" stroke="#6A42FD" stroke-width="5"/>
<path d="M78.3667 1325.88C78.3667 1346.28 61.8208 1362.82 41.406 1362.82C20.9913 1362.82 4.44531 1346.28 4.44531 1325.88C4.44531 1305.48 20.9913 1288.94 41.406 1288.94C61.8208 1288.94 78.3667 1305.48 78.3667 1325.88Z" stroke="#FF54D0" stroke-width="8"/>
<ellipse cx="57.6503" cy="1325.14" rx="5.83197" ry="5.82904" fill="#FF54CF"/>
<ellipse cx="41.4081" cy="1325.14" rx="5.83197" ry="5.82904" fill="#FF54CF"/>
<ellipse cx="25.162" cy="1325.14" rx="5.83197" ry="5.82904" fill="#FF54CF"/>
<circle cx="555.57" cy="1018.9" r="21.7422" stroke="#A046EE" stroke-width="5"/>
<circle cx="40.9414" cy="40.9395" r="21.7422" fill="#FFC700" stroke="#FFC700" stroke-width="5"/>
<path d="M34.9029 47.8848L28.6697 41.6515C27.9811 40.963 26.8649 40.963 26.1763 41.6515C25.4878 42.34 25.4878 43.4563 26.1763 44.1448L33.4887 51.4572C34.2698 52.2382 35.5361 52.2382 36.3172 51.4572L55.0275 32.7468C55.7161 32.0583 55.7161 30.942 55.0275 30.2535C54.339 29.565 53.2227 29.565 52.5342 30.2535L34.9029 47.8848Z" fill="black"/>
<circle cx="40.9402" cy="40.9402" r="36.9402" stroke="#FFC700" stroke-width="8"/>
<path d="M598.155 759.917C600.364 759.917 602.155 758.126 602.155 755.917C602.155 753.708 600.364 751.917 598.155 751.917V759.917ZM44.6035 78.1494L44.6035 74.1494L36.6035 74.1494L36.6035 78.1494L44.6035 78.1494ZM64.6035 233.208H1180.23V225.208H64.6035V233.208ZM1200.23 253.208V462.976H1208.23V253.208H1200.23ZM44.6035 205.208L44.6035 78.1494L36.6035 78.1494L36.6035 205.208L44.6035 205.208ZM1180.23 482.976H160.63V490.976H1180.23V482.976ZM160.63 482.976H64.8464V490.976H160.63V482.976ZM36.8463 510.976L36.8463 731.917L44.8463 731.917L44.8463 510.976L36.8463 510.976ZM64.8463 759.917H598.155V751.917H64.8463V759.917ZM36.8463 731.917C36.8463 747.381 49.3824 759.917 64.8463 759.917V751.917C53.8006 751.917 44.8463 742.963 44.8463 731.917L36.8463 731.917ZM1200.23 462.976C1200.23 474.022 1191.27 482.976 1180.23 482.976V490.976C1195.69 490.976 1208.23 478.44 1208.23 462.976H1200.23ZM64.8464 482.976C49.3824 482.976 36.8463 495.512 36.8463 510.976L44.8463 510.976C44.8463 499.93 53.8007 490.976 64.8464 490.976V482.976ZM1180.23 233.208C1191.27 233.208 1200.23 242.162 1200.23 253.208H1208.23C1208.23 237.744 1195.69 225.208 1180.23 225.208V233.208ZM64.6035 225.208C53.5578 225.208 44.6035 216.254 44.6035 205.208L36.6035 205.208C36.6035 220.672 49.1395 233.208 64.6035 233.208V225.208Z" fill="#FFC700"/>
<circle cx="960.07" cy="229.168" r="21.7422" fill="#FFC700" stroke="#FFC700" stroke-width="5"/>
<path d="M954.032 236.113L947.799 229.88C947.11 229.192 945.994 229.192 945.305 229.88C944.617 230.569 944.617 231.685 945.305 232.373L952.618 239.686C953.399 240.467 954.665 240.467 955.446 239.686L974.156 220.975C974.845 220.287 974.845 219.171 974.156 218.482C973.468 217.793 972.352 217.793 971.663 218.482L954.032 236.113Z" fill="black"/>
<circle cx="208.221" cy="229.167" r="21.7422" fill="#FFC700" stroke="#FFC700" stroke-width="5"/>
<path d="M202.182 236.113L195.949 229.88C195.26 229.191 194.144 229.191 193.456 229.88C192.767 230.568 192.767 231.684 193.456 232.373L200.768 239.685C201.549 240.466 202.815 240.466 203.596 239.685L222.307 220.975C222.995 220.286 222.995 219.17 222.307 218.482C221.618 217.793 220.502 217.793 219.814 218.482L202.182 236.113Z" fill="black"/>
<circle cx="562.07" cy="229.168" r="21.7422" fill="#FFC700" stroke="#FFC700" stroke-width="5"/>
<path d="M556.032 236.113L549.799 229.88C549.11 229.192 547.994 229.192 547.305 229.88C546.617 230.569 546.617 231.685 547.305 232.373L554.618 239.686C555.399 240.467 556.665 240.467 557.446 239.686L576.156 220.975C576.845 220.287 576.845 219.171 576.156 218.482C575.468 217.793 574.352 217.793 573.663 218.482L556.032 236.113Z" fill="black"/>
<circle cx="562.07" cy="487.683" r="21.7422" fill="#FFC700" stroke="#FFC700" stroke-width="5"/>
<path d="M556.032 494.628L549.799 488.395C549.11 487.707 547.994 487.707 547.305 488.395C546.617 489.084 546.617 490.2 547.305 490.888L554.618 498.201C555.399 498.982 556.665 498.982 557.446 498.201L576.156 479.49C576.845 478.802 576.845 477.686 576.156 476.997C575.468 476.309 574.352 476.309 573.663 476.997L556.032 494.628Z" fill="black"/>
<circle cx="208.221" cy="487.683" r="21.7422" fill="#FFC700" stroke="#FFC700" stroke-width="5"/>
<path d="M202.182 494.628L195.949 488.395C195.26 487.707 194.144 487.707 193.456 488.395C192.767 489.084 192.767 490.2 193.456 490.888L200.768 498.201C201.549 498.982 202.815 498.982 203.596 498.201L222.307 479.49C222.995 478.802 222.995 477.686 222.307 476.997C221.618 476.309 220.502 476.309 219.814 476.997L202.182 494.628Z" fill="black"/>
<circle cx="960.07" cy="487.683" r="21.7422" fill="#FFC700" stroke="#FFC700" stroke-width="5"/>
<path d="M954.032 494.628L947.799 488.395C947.11 487.707 945.994 487.707 945.305 488.395C944.617 489.084 944.617 490.2 945.305 490.888L952.618 498.201C953.399 498.982 954.665 498.982 955.446 498.201L974.156 479.49C974.845 478.802 974.845 477.686 974.156 476.997C973.468 476.309 972.352 476.309 971.663 476.997L954.032 494.628Z" fill="black"/>
<circle cx="208.721" cy="755.917" r="21.7422" fill="#FFC700" stroke="#FFC700" stroke-width="5"/>
<path d="M202.682 762.862L196.449 756.629C195.76 755.941 194.644 755.941 193.956 756.629C193.267 757.318 193.267 758.434 193.956 759.122L201.268 766.435C202.049 767.216 203.315 767.216 204.096 766.435L222.807 747.724C223.495 747.036 223.495 745.92 222.807 745.231C222.118 744.543 221.002 744.543 220.314 745.231L202.682 762.862Z" fill="black"/>
<circle cx="561.23" cy="754.917" r="21.7422" fill="#FFC700" stroke="#FFC700" stroke-width="5"/>
<g filter="url(#filter0_d_1045_99)">
<path d="M602 756H1182C1195.25 756 1206 766.745 1206 780V995C1206 1008.25 1195.25 1019 1182 1019H1022H921.5" stroke="#FFC700" stroke-width="8" stroke-linecap="round"/>
</g>
<circle cx="957.242" cy="756.242" r="21.7422" fill="#FFC700" stroke="#FFC700" stroke-width="5"/>
<circle cx="957.242" cy="1019.24" r="21.7422" fill="#FFC700" stroke="#FFC700" stroke-width="5"/>
<circle cx="956.94" cy="1018.94" r="36.9402" stroke="#FFC700" stroke-width="8"/>
<path d="M552.973 762.878L546.74 756.645C546.051 755.956 544.935 755.956 544.247 756.645V756.645C543.558 757.333 543.558 758.449 544.247 759.138L551.559 766.45C552.34 767.231 553.606 767.231 554.387 766.45L573.098 747.74C573.786 747.051 573.786 745.935 573.098 745.247V745.247C572.409 744.558 571.293 744.558 570.605 745.247L552.973 762.878Z" fill="black"/>
<path d="M950.973 762.878L944.74 756.645C944.051 755.956 942.935 755.956 942.247 756.645V756.645C941.558 757.333 941.558 758.449 942.247 759.138L949.559 766.45C950.34 767.231 951.606 767.231 952.387 766.45L971.098 747.74C971.786 747.051 971.786 745.935 971.098 745.247V745.247C970.409 744.558 969.293 744.558 968.605 745.247L950.973 762.878Z" fill="black"/>
<defs>
<filter id="filter0_d_1045_99" x="594" y="752" width="620" height="279" filterUnits="userSpaceOnUse" color-interpolation-filters="sRGB">
<feFlood flood-opacity="0" result="BackgroundImageFix"/>
<feColorMatrix in="SourceAlpha" type="matrix" values="0 0 0 0 0 0 0 0 0 0 0 0 0 0 0 0 0 0 127 0" result="hardAlpha"/>
<feOffset dy="4"/>
<feGaussianBlur stdDeviation="2"/>
<feComposite in2="hardAlpha" operator="out"/>
<feColorMatrix type="matrix" values="0 0 0 0 0 0 0 0 0 0 0 0 0 0 0 0 0 0 0.25 0"/>
<feBlend mode="normal" in2="BackgroundImageFix" result="effect1_dropShadow_1045_99"/>
<feBlend mode="normal" in="SourceGraphic" in2="effect1_dropShadow_1045_99" result="shape"/>
</filter>
<linearGradient id="paint0_linear_1045_99" x1="662.656" y1="832.095" x2="246.005" y2="1321.98" gradientUnits="userSpaceOnUse">
<stop stop-color="#6F3CFF"/>
<stop offset="1" stop-color="#FF54CF"/>
</linearGradient>
</defs>
</svg>
