<svg width="1440" height="2076" viewBox="0 0 1440 2076" fill="none" xmlns="http://www.w3.org/2000/svg">
<path fill-rule="evenodd" clip-rule="evenodd" d="M587.537 1671.6C394.77 1579.84 171.176 1557.33 9.95701 1427.61C-168.778 1283.8 -324.24 1107.08 -359.874 909.311C-396.585 705.56 -311.392 510.868 -184.474 348.488C-58.7673 187.656 114.45 41.5371 346.091 6.09206C566.412 -27.6208 781.784 103.551 1004.69 166.525C1224.47 228.614 1489.53 218.612 1640.34 371.731C1791.37 525.084 1716 736.382 1752.48 925.809C1792.85 1135.38 1931.17 1343.48 1865.23 1539.4C1788.56 1767.23 1650.2 2043.9 1366.31 2073.27C1074.15 2103.51 858.709 1800.69 587.537 1671.6Z" fill="url(#paint0_linear_617_111)"/>
<defs>
<linearGradient id="paint0_linear_617_111" x1="123.937" y1="1492.26" x2="1019.24" y2="140.165" gradientUnits="userSpaceOnUse">
<stop offset="0.417254" stop-color="#170429" stop-opacity="0"/>
<stop offset="0.505208" stop-color="#170429"/>
</linearGradient>
</defs>
</svg>
