<svg viewBox="0 0 768 1803" fill="none" xmlns="http://www.w3.org/2000/svg">
<path fill-rule="evenodd" clip-rule="evenodd" d="M398.696 260.366C567.655 314.005 758.583 297.784 903.08 392.155C1063.28 496.779 1205.72 636.034 1247.84 814.94C1291.23 999.257 1230.72 1195.42 1132.89 1368.34C1035.99 1539.61 897.928 1705.05 703.667 1776.79C518.899 1845.02 328.402 1758.31 135.621 1736.61C-54.4517 1715.2 -278.584 1768.73 -415.657 1650.75C-552.94 1532.59 -501.759 1322.54 -544.095 1151.57C-590.933 962.427 -720.734 790.984 -676.625 596.878C-625.333 371.161 -524.687 89.5111 -285.76 14.7412C-39.8712 -62.2073 161.015 184.911 398.696 260.366Z" fill="url(#paint0_linear_811_1265)"/>
<defs>
<linearGradient id="paint0_linear_811_1265" x1="382.536" y1="223.897" x2="162.348" y2="1294.77" gradientUnits="userSpaceOnUse">
<stop stop-color="#170429" stop-opacity="0"/>
<stop offset="0.0848643" stop-color="#170429"/>
</linearGradient>
</defs>
</svg>
