<svg width="1440" height="2791" viewBox="0 0 1440 2791" fill="none" xmlns="http://www.w3.org/2000/svg">
<path fill-rule="evenodd" clip-rule="evenodd" d="M731.135 403.44C992.617 486.451 1288.1 461.347 1511.72 607.396C1759.64 769.312 1980.09 984.823 2045.27 1261.7C2112.42 1546.95 2018.78 1850.54 1867.37 2118.15C1717.41 2383.21 1503.75 2639.24 1203.11 2750.26C917.162 2855.85 622.348 2721.66 323.999 2688.07C29.8429 2654.95 -317.025 2737.78 -529.16 2555.2C-741.618 2372.34 -662.41 2047.26 -727.929 1782.67C-800.416 1489.95 -1001.3 1224.63 -933.034 924.225C-853.655 574.906 -697.894 139.024 -328.13 23.3098C52.4075 -95.7758 363.299 286.665 731.135 403.44Z" fill="url(#paint0_linear_617_120)"/>
<defs>
<linearGradient id="paint0_linear_617_120" x1="615.909" y1="1196.69" x2="302.277" y2="2002.27" gradientUnits="userSpaceOnUse">
<stop stop-color="#170429" stop-opacity="0"/>
<stop offset="0.12515" stop-color="#170429"/>
</linearGradient>
</defs>
</svg>
