<svg width="1440" height="1891" viewBox="0 0 1440 1891" fill="none" xmlns="http://www.w3.org/2000/svg">
<path fill-rule="evenodd" clip-rule="evenodd" d="M1084.96 83.9489C790.806 79.2997 489.217 -8.07215 218.197 39.7858C-82.27 92.8435 -367.981 189.426 -507.699 365.188C-651.643 546.267 -632.678 778.122 -544.165 998.822C-456.497 1217.42 -300.061 1444.88 -15.3586 1592.81C255.431 1733.5 597.606 1710.71 917.398 1758.23C1232.7 1805.08 1572.9 1944.5 1841.41 1868.69C2110.33 1792.76 2111.99 1549.49 2248.88 1382.29C2400.32 1197.31 2678.54 1061.69 2685.21 838.052C2692.97 577.996 2643.53 240.054 2287.96 72.4987C1922.04 -99.9386 1498.77 90.4891 1084.96 83.9489Z" fill="url(#paint0_linear_824_1221)"/>
<defs>
<linearGradient id="paint0_linear_824_1221" x1="1920.27" y1="-345.993" x2="606.646" y2="1158.75" gradientUnits="userSpaceOnUse">
<stop stop-color="#170429" stop-opacity="0"/>
<stop offset="0.192227" stop-color="#170429"/>
</linearGradient>
</defs>
</svg>
