<svg viewBox="0 0 1440 1891" fill="none" xmlns="http://www.w3.org/2000/svg">
<path fill-rule="evenodd" clip-rule="evenodd" d="M1084.96 83.9489C790.798 79.2997 489.209 -8.07215 218.189 39.7858C-82.2778 92.8435 -367.989 189.426 -507.707 365.188C-651.65 546.267 -632.686 778.122 -544.173 998.822C-456.505 1217.42 -300.068 1444.88 -15.3664 1592.81C255.423 1733.5 597.598 1710.71 917.39 1758.23C1232.69 1805.08 1572.9 1944.5 1841.41 1868.69C2110.33 1792.76 2111.98 1549.49 2248.87 1382.29C2400.31 1197.31 2678.53 1061.69 2685.2 838.052C2692.97 577.996 2643.52 240.054 2287.96 72.4987C1922.04 -99.9386 1498.76 90.4891 1084.96 83.9489Z" fill="url(#paint0_linear_824_1221)"/>
<defs>
<linearGradient id="paint0_linear_824_1221" x1="1920.26" y1="-345.993" x2="606.638" y2="1158.75" gradientUnits="userSpaceOnUse">
<stop stop-color="#170429" stop-opacity="0"/>
<stop offset="0.192227" stop-color="#170429"/>
</linearGradient>
</defs>
</svg>
