<svg width="86" height="86" viewBox="0 0 86 86" fill="none" xmlns="http://www.w3.org/2000/svg">
<path d="M82.0141 47.2866C84.2153 25.9136 68.6734 6.80289 47.3003 4.60174C25.9272 2.40059 6.81657 17.9425 4.61542 39.3155C2.41427 60.6886 17.9562 79.7993 39.3292 82.0004C60.7023 84.2016 79.813 68.6597 82.0141 47.2866Z" fill="#FFC700"/>
<path d="M17.7404 58.7287L23.2908 72.2565L39.174 75.4208L44.3762 62.8352L30.7153 51.7036L17.7404 58.7287Z" fill="#1D093B" stroke="#1D093B" stroke-width="1.14657" stroke-miterlimit="10"/>
<path d="M61.028 56.5786L63.4447 40.2448L75.1702 35.5239L79.9116 49.615L71.4631 62.4465L61.028 56.5786Z" fill="#1D093B" stroke="#1D093B" stroke-width="1.14657" stroke-miterlimit="10"/>
<path d="M22.0306 23.8598L33.367 34.6227L48.861 27.8639L49.7724 13.5988L31.6568 10.885L22.0306 23.8598Z" fill="#1D093B" stroke="#1D093B" stroke-width="1.14657" stroke-miterlimit="10"/>
<path d="M4.64242 47.6281L7.27426 45.8667L9.60912 31.2124L7.561 27.9968C4.90773 34.1783 3.90216 40.942 4.64242 47.6281Z" fill="#1D093B"/>
<path d="M59.0923 7.74072L59.7374 10.9563L73.6544 22.3233H76.0507C71.9559 15.8997 66.0568 10.827 59.0923 7.74072Z" fill="#1D093B"/>
<path d="M63.4436 40.2439L48.861 27.863" stroke="#1D093B" stroke-width="1.66575" stroke-miterlimit="10" stroke-linecap="round"/>
<path d="M30.7151 51.7034L33.3675 34.6221" stroke="#1D093B" stroke-width="1.66575" stroke-miterlimit="10" stroke-linecap="round"/>
<path d="M44.3867 62.8351L61.0277 56.5781" stroke="#1D093B" stroke-width="1.66575" stroke-miterlimit="10" stroke-linecap="round"/>
<path d="M7.27423 45.866L17.7504 58.7282" stroke="#1D093B" stroke-width="1.66575" stroke-miterlimit="10" stroke-linecap="round"/>
<path d="M31.6565 10.8844L29.6595 7.19775" stroke="#1D093B" stroke-width="1.66575" stroke-miterlimit="10" stroke-linecap="round"/>
<path d="M49.7729 13.5979L59.737 10.9558" stroke="#1D093B" stroke-width="1.66575" stroke-miterlimit="10" stroke-linecap="round"/>
<path d="M75.1698 35.5234L73.6542 22.3232" stroke="#1D093B" stroke-width="1.66575" stroke-miterlimit="10" stroke-linecap="round"/>
<path d="M39.1743 75.4209L52.9069 80.7255" stroke="#1D093B" stroke-width="1.66575" stroke-miterlimit="10" stroke-linecap="round"/>
<path d="M71.4625 62.4453L65.738 74.9184" stroke="#1D093B" stroke-width="1.14657" stroke-miterlimit="10" stroke-linecap="round"/>
<path d="M23.2908 72.2559L20.7204 74.3142" stroke="#1D093B" stroke-width="1.66575" stroke-miterlimit="10" stroke-linecap="round"/>
<path d="M79.9111 49.6144L81.2526 49.5325" stroke="#1D093B" stroke-width="1.14657" stroke-miterlimit="10" stroke-linecap="round"/>
<path d="M9.02576 31.56L22.0313 23.8591" stroke="#1D093B" stroke-width="1.66575" stroke-miterlimit="10" stroke-linecap="round"/>
</svg>
