<svg width="86" height="39" viewBox="0 0 86 39" fill="none" xmlns="http://www.w3.org/2000/svg">
<path d="M47.0732 37.3835C44.4513 37.3835 42.4633 36.647 41.109 35.174C39.772 33.6837 39.1035 31.4914 39.1035 28.5974C39.1035 25.738 39.7807 23.5805 41.135 22.1248C42.4893 20.6517 44.4687 19.9152 47.0732 19.9152C48.0281 19.9152 49.0005 20.0279 49.9902 20.2532C50.9799 20.4784 51.7959 20.7644 52.4384 21.111L52.0216 27.8955L47.8545 27.5576L48.3754 23.9444C47.8545 23.8577 47.3423 23.8144 46.8388 23.8144C45.6754 23.8144 44.8333 24.1957 44.3124 24.9582C43.7915 25.7207 43.5311 26.9337 43.5311 28.5974C43.5311 30.2957 43.8523 31.5348 44.4948 32.3146C45.1545 33.0771 46.2745 33.4584 47.8545 33.4584C48.9137 33.4584 50.3027 33.3111 52.0216 33.0165L52.6207 36.2658C52.0477 36.5777 51.2403 36.8377 50.1985 37.0456C49.1567 37.2709 48.115 37.3835 47.0732 37.3835Z" fill="#FFC700"/>
<path d="M14.3574 0.36731H18.7343V13.6033L23.0848 13.3924L22.6629 9.17376C23.9109 9.03314 25.3084 8.96282 26.8552 8.96282L27.0134 17.2419H14.3574V0.36731Z" fill="white"/>
<path d="M29.1454 17.2419C29.3387 14.1131 29.7958 10.9843 30.5164 7.85543C31.2371 4.72659 32.116 2.23055 33.1531 0.36731H39.5338C40.5709 2.23055 41.4498 4.72659 42.1705 7.85543C42.8912 10.9843 43.3482 14.1131 43.5415 17.2419H39.1911C39.1207 16.0115 39.0504 15.1062 38.9801 14.5262H33.7068C33.6365 15.1062 33.5662 16.0115 33.4959 17.2419H29.1454ZM38.4792 10.8612C38.0573 8.29487 37.4772 6.0625 36.739 4.1641H35.948C35.2097 6.0625 34.6296 8.29487 34.2078 10.8612H38.4792Z" fill="white"/>
<path d="M45.3308 13.6561L53.5835 4.0059L45.8581 4.29594V0.36731H58.9887V3.95317L50.8941 13.6297L59.1205 13.2606V17.2419H45.3308V13.6561Z" fill="white"/>
<path d="M66.394 11.9423H64.4429C63.4585 10.1845 62.6851 8.28608 62.1226 6.24706C61.5601 4.19047 61.2789 2.23055 61.2789 0.36731H65.6821C65.6821 1.59775 65.8227 2.88972 66.104 4.2432C66.3852 5.57911 66.7807 6.87986 67.2905 8.14546H69.2943C69.8041 6.87986 70.1996 5.57911 70.4808 4.2432C70.7621 2.88972 70.9027 1.59775 70.9027 0.36731H75.3059C75.3059 2.23055 75.0247 4.19047 74.4622 6.24706C73.8997 8.28608 73.1263 10.1845 72.1419 11.9423H70.1644L70.5335 17.2419H66.0512L66.394 11.9423Z" fill="white"/>
<path d="M56.6503 25.8442L56.9404 23.7876L54.6992 24.104V19.9908H68.1462L68.4099 23.8931L61.0272 23.6558V26.6089L67.1443 26.3452V30.1947L61.0272 30.0102V33.2005L68.6735 32.9632L68.4099 36.8655H56.6503V25.8442Z" fill="#FFC700"/>
<path d="M80.693 36.8655C80.2008 35.0022 79.6032 33.2708 78.9001 31.6713L77.2653 31.8295V36.8655H72.8885V25.8179L73.1521 23.7876L71.5174 24.104C71.4823 22.8033 71.4647 21.8014 71.4647 21.0982V19.9908H77.2653V20.0699L77.2917 19.9908H79.4274C81.3082 19.9908 82.7935 20.4654 83.8833 21.4146C84.9732 22.3463 85.5181 23.6294 85.5181 25.2642C85.5181 26.4243 85.2808 27.4438 84.8062 28.3227C84.3316 29.2016 83.6812 29.9135 82.855 30.4584C83.9976 32.3568 85.0083 34.4925 85.8872 36.8655H80.693ZM78.9001 27.9799C79.5856 27.9272 80.1305 27.6987 80.5348 27.2944C80.9566 26.8725 81.1676 26.3452 81.1676 25.7124C81.1676 25.0796 80.9918 24.5874 80.6403 24.2359C80.3063 23.8667 79.8317 23.6822 79.2165 23.6822H77.2653V28.1118L78.9001 27.9799Z" fill="#FFC700"/>
<path d="M28.6238 29.2738C29.1362 24.278 25.4981 19.8089 20.4977 19.2919C15.4973 18.7749 11.0283 22.4057 10.5158 27.4015C10.0033 32.3973 13.6415 36.8664 18.6419 37.3834C23.6423 37.9004 28.1113 34.2696 28.6238 29.2738Z" fill="white"/>
<path d="M13.5918 31.9175L14.8904 35.095L18.6063 35.8382L19.8234 32.882L16.6274 30.2674L13.5918 31.9175Z" fill="#1D083A" stroke="#1D093B" stroke-width="1.28828" stroke-miterlimit="10"/>
<path d="M23.7188 31.4124L24.2842 27.5758L27.0274 26.4669L28.1367 29.7767L26.1601 32.7907L23.7188 31.4124Z" fill="#1D083A" stroke="#1D093B" stroke-width="1.28828" stroke-miterlimit="10"/>
<path d="M14.5957 23.7272L17.2479 26.2552L20.8729 24.6677L21.0861 21.317L16.8478 20.6796L14.5957 23.7272Z" fill="#1D083A" stroke="#1D093B" stroke-width="1.28828" stroke-miterlimit="10"/>
<path d="M10.528 29.31L11.1437 28.8962L11.6899 25.4541L11.2108 24.6989C10.59 26.1508 10.3548 27.7395 10.528 29.31Z" fill="#1D083A"/>
<path d="M23.2676 19.941L23.4185 20.6963L26.6745 23.3663H27.2351C26.2771 21.8575 24.897 20.666 23.2676 19.941Z" fill="#1D083A"/>
<path d="M24.2848 27.5755L20.873 24.6674" stroke="#1D093B" stroke-width="1.28828" stroke-miterlimit="10" stroke-linecap="round"/>
<path d="M16.6289 30.2671L17.2494 26.2549" stroke="#1D093B" stroke-width="1.28828" stroke-miterlimit="10" stroke-linecap="round"/>
<path d="M19.8262 32.8817L23.7194 31.412" stroke="#1D093B" stroke-width="1.28828" stroke-miterlimit="10" stroke-linecap="round"/>
<path d="M11.1445 28.896L13.5955 31.9171" stroke="#1D093B" stroke-width="1.28828" stroke-miterlimit="10" stroke-linecap="round"/>
<path d="M16.85 20.6792L16.3828 19.8133" stroke="#1D093B" stroke-width="1.28828" stroke-miterlimit="10" stroke-linecap="round"/>
<path d="M21.0879 21.3166L23.4191 20.696" stroke="#1D093B" stroke-width="1.28828" stroke-miterlimit="10" stroke-linecap="round"/>
<path d="M27.0304 26.4666L26.6758 23.366" stroke="#1D093B" stroke-width="1.28828" stroke-miterlimit="10" stroke-linecap="round"/>
<path d="M18.6074 35.8379L21.8203 37.0839" stroke="#1D093B" stroke-width="1.28828" stroke-miterlimit="10" stroke-linecap="round"/>
<path d="M26.1616 32.7903L24.8223 35.7201" stroke="#1D093B" stroke-width="1.28828" stroke-miterlimit="10" stroke-linecap="round"/>
<path d="M14.8924 35.0947L14.291 35.5782" stroke="#1D093B" stroke-width="1.28828" stroke-miterlimit="10" stroke-linecap="round"/>
<path d="M28.1387 29.7763L28.4525 29.7571" stroke="#1D093B" stroke-width="1.28828" stroke-miterlimit="10" stroke-linecap="round"/>
<path d="M11.5547 25.5356L14.5974 23.7267" stroke="#1D093B" stroke-width="1.28828" stroke-miterlimit="10" stroke-linecap="round"/>
<path fill-rule="evenodd" clip-rule="evenodd" d="M13.6479 19.9802C11.6026 19.7062 8.65975 19.5692 7.0438 19.5692C4.84658 19.5692 3.18548 20.0087 2.06051 20.8875C0.953109 21.7664 0.39941 23.0232 0.39941 24.658C0.39941 26.1521 0.891587 27.3298 1.87594 28.1911C2.86029 29.0524 4.39835 29.7467 6.4901 30.2741C7.59749 30.5553 8.33576 30.8365 8.70489 31.1178C9.07402 31.3815 9.25859 31.7154 9.25859 32.1197C9.25859 32.5416 9.0916 32.858 8.75763 33.0689C8.44123 33.2623 7.9051 33.3589 7.14926 33.3589C5.19813 33.3589 3.15033 33.0953 1.00584 32.568L0.214844 36.312C2.25386 36.9624 4.57412 37.2876 7.17563 37.2876C9.26738 37.2876 10.8582 36.8393 11.948 35.9429C12.0883 35.8274 12.2196 35.7057 12.3419 35.5778C10.5016 33.7181 9.36523 31.1605 9.36523 28.3375C9.36523 27.887 9.39418 27.4432 9.4503 27.008C8.90349 26.8035 8.29467 26.609 7.62386 26.4245C6.49889 26.1081 5.73425 25.8357 5.32997 25.6072C4.92568 25.3611 4.72353 25.0447 4.72353 24.658C4.72353 23.8845 5.47059 23.4978 6.9647 23.4978C7.77197 23.4978 9.12119 23.5394 10.506 23.6227C11.2536 22.1744 12.3347 20.9263 13.6479 19.9802Z" fill="#FFC700"/>
<path fill-rule="evenodd" clip-rule="evenodd" d="M29.2521 32.4743C28.6284 33.8249 27.7087 35.0108 26.5762 35.9487C27.8659 36.9053 29.5671 37.3835 31.6799 37.3835C32.7217 37.3835 33.7634 37.2709 34.8052 37.0456C35.847 36.8377 36.6544 36.5777 37.2274 36.2658L36.6283 33.0165C34.9094 33.3111 33.5204 33.4584 32.4612 33.4584C30.9956 33.4584 29.9259 33.1304 29.2521 32.4743ZM29.3674 24.46C29.8788 24.0296 30.5715 23.8144 31.4455 23.8144C31.949 23.8144 32.4612 23.8577 32.9821 23.9444L32.4612 27.5576L36.6283 27.8955L37.0451 21.111C36.4026 20.7644 35.5866 20.4784 34.5969 20.2532C33.6072 20.0279 32.6348 19.9152 31.6799 19.9152C29.7844 19.9152 28.2199 20.3053 26.9866 21.0856C28.0002 22.0235 28.8169 23.1713 29.3674 24.46Z" fill="#FFC700"/>
</svg>
